<svg height="512" viewBox="0 0 60 60" width="512" xmlns="http://www.w3.org/2000/svg"><g id="Page-1" fill="none" fill-rule="evenodd"><g id="020---Pizza-and-Soda" fill="rgb(0,0,0)" fill-rule="nonzero"><path id="Shape" d="m16.5 36c-3.5898509 0-6.5 2.9101491-6.5 6.5s2.9101491 6.5 6.5 6.5 6.5-2.9101491 6.5-6.5c-.0044079-3.5880235-2.9119765-6.4955921-6.5-6.5zm0 11c-2.4852814 0-4.5-2.0147186-4.5-4.5s2.0147186-4.5 4.5-4.5 4.5 2.0147186 4.5 4.5c-.0027556 2.4841391-2.0158609 4.4972444-4.5 4.5z"/><path id="Shape" d="m28 48c1.6568542 0 3-1.3431458 3-3s-1.3431458-3-3-3-3 1.3431458-3 3 1.3431458 3 3 3zm0-4c.5522847 0 1 .4477153 1 1s-.4477153 1-1 1-1-.4477153-1-1 .4477153-1 1-1z"/><path id="Shape" d="m20 29c-1.6568542 0-3 1.3431458-3 3s1.3431458 3 3 3 3-1.3431458 3-3-1.3431458-3-3-3zm0 4c-.5522847 0-1-.4477153-1-1s.4477153-1 1-1 1 .4477153 1 1-.4477153 1-1 1z"/><circle id="Oval" cx="26" cy="25" r="1"/><circle id="Oval" cx="14" cy="32" r="1"/><circle id="Oval" cx="38" cy="54" r="1"/><circle id="Oval" cx="40" cy="50" r="1"/><circle id="Oval" cx="42" cy="54" r="1"/><path id="Shape" d="m45.011 29c-3.8659932 0-7 3.1340068-7 7s3.1340068 7 7 7 7-3.1340068 7-7c-.0044086-3.8641657-3.1358343-6.9955914-7-7zm0 12c-2.7614237 0-5-2.2385763-5-5s2.2385763-5 5-5 5 2.2385763 5 5c-.0033061 2.7600532-2.2399468 4.9966939-5 5z"/><path id="Shape" d="m59 58h-1.312c.018-.025.04-.047.058-.073 1.01376-1.4331577 1.2743779-3.267163.7-4.926l-.5-1.468c-1.475-4.13-1.418-8.225.189-13.278 2.013-6.332.442-13.594-3.911-18.073-2.334-2.392-4.213-8.073-4.213-11.182v-3.278c.6157032-.35546439.996422-1.01106222 1-1.722v-1c0-1.65685425-1.3431458-3-3-3h-6c-1.6568542 0-3 1.34314575-3 3v1c.002145.71132678.3832487 1.36758742 1 1.722v3.278c0 3.1-1.884 8.784-4.225 11.184-1.8454439 1.9413583-3.2006851 4.2952885-3.953 6.866l-8.026-21.412c-.4405657-1.16814982-1.5585321-1.94134472-2.807-1.94134472s-2.3664343.7731949-2.807 1.94134472l-16.98 45.283c-.4794394 1.2846544-.41104732 2.7097221.18921197 3.9425595.60025928 1.2328373 1.67985626 2.1655569 2.98678803 2.5804405.624.2 1.25133333.3853333 1.882.556h-5.271c-.55228475 0-1 .4477153-1 1s.44771525 1 1 1h58c.5522847 0 1-.4477153 1-1s-.4477153-1-1-1zm-2.771-20.351c-.7952399 2.3938205-1.240833 4.8898828-1.323 7.411h-19.806c-.082193-2.5213581-.527439-5.0176994-1.322-7.412-1.0860947-3.4752075-1.0300198-7.206994.16-10.648h22.135c1.1877413 3.4419487 1.2424092 7.1737367.156 10.649zm-15.218-34.649c0-.55228475.4477153-1 1-1h6c.5522847 0 1 .44771525 1 1v1h-8zm1 6v-3h6v3c.1680074 3.1325143.9813374 6.1965453 2.389 9h-10.786c1.411222-2.8025535 2.2273278-5.8667804 2.397-9zm-4.792 12.579c.4627787-.4876099.8804821-1.0160984 1.248-1.579h13.078c.3662758.5626339.783354 1.090509 1.246 1.577.9764658 1.0134128 1.7958638 2.1671764 2.431 3.423h-20.433c.6345487-1.2553255 1.4536455-2.4084655 2.43-3.421zm-5.419 16.401c-2.3629743-.0915679-4.3373521-1.8288315-4.7288607-4.1609449-.3915086-2.3321135.9073274-4.6188749 3.1108607-5.4770551l.917 2.446c-.2310624 2.4201063.0069537 4.8620635.701 7.192zm-11.734-31.638c.1480681-.38708658.5195604-.642727.934-.642727s.7859319.25564042.934.642727l7.546 20.13c-3.1418514 1.2161624-4.9716996 4.4978705-4.3547311 7.8099138.6169684 3.3120434 3.5057149 5.7147703 6.8747311 5.7180862.119 0 .246-.01.371-.017.8802296 3.0943024.9771376 6.3589341.282 9.5-3.803291 1.0028657-7.7197133 1.5127098-11.653 1.517-5.6512877.0028394-11.25395438-1.0439095-16.523-3.087l7.81-20.825c1.1443244.6034289 2.4193294.9166001 3.713.912 4.0545168.0037641 7.469238-3.0294996 7.943551-7.0561791.4743129-4.0266794-2.1421334-7.7703699-6.086551-8.7088209zm-7.066 18.84 4.147-11.056c3.0310351.5889222 5.118265 3.3847203 4.8213807 6.4581326-.2968843 3.0734122-2.8806633 5.4180021-5.9683807 5.4158674-1.0552266.001037-2.0913477-.2814787-3-.818zm-8.008 30.355c-.78353482-.2502604-1.43023663-.8107602-1.78928907-1.5507862-.35905243-.740026-.39906662-1.594884-.11071093-2.3652138l.688-1.837c1.54540771.5981178 3.12086751 1.1154828 4.72 1.55l-.451 1.349c-.11325319.3394023-.03683448.7134428.20046995.9812241.23730442.2677813.59944238.388621.95.317s.63627686-.3248218.74953005-.6642241l.5-1.5c1.8305781.4153678 3.6841595.721905 5.551.918v1.265c0 .5522847.4477153 1 1 1s1-.4477153 1-1v-1.1c1 .062 2 .1 3 .1s2-.039 3-.1v1.1c0 .5522847.4477153 1 1 1s1-.4477153 1-1v-1.287c2.0226238-.2115931 4.0296963-.5519504 6.009-1.019l-.446 1.306c-.5745532 1.6591495-.3139344 3.4935337.7 4.927.018.026.039.048.058.0730143l-11.321-.0000143c-5.430673.003983-10.8296997-.8267143-16.008-2.463zm31.216 2.463c-.9274655-.0083304-1.7922941-.4694976-2.316-1.235-.6390546-.9080278-.8017158-2.0682447-.437-3.117l.492-1.442c.5982158-1.6579964.9712117-3.3887782 1.109-5.146h19.9c.1355584 1.75248.5055224 3.4788662 1.1 5.133l.5 1.456c.3647096 1.0484262.2020383 2.2083433-.437 3.116-.5243102.7663678-1.3904707 1.2276477-2.319 1.235z"/></g></g></svg>